<svg width="464" height="448" viewBox="0 0 464 448" fill="none" xmlns="http://www.w3.org/2000/svg">
<path d="M338 13C346 32.3333 347.333 50 342 66C354 76 362 91.6667 366 113C370 134.333 369 155 363 175C370.333 175.667 381.167 176.167 395.5 176.5C409.833 176.833 422.5 177.5 433.5 178.5C444.5 179.5 454 181.333 462 184C417.333 178.667 388 176.333 374 177C364.667 180.333 359.667 183 359 185C407.667 189 441.667 194.333 461 201C409.667 192.333 375.667 187.667 359 187C344.333 215.667 315.333 231.667 272 235C272.667 237 275.167 240.833 279.5 246.5C283.833 252.167 286.333 258 287 264C287.667 270 287.5 283.5 286.5 304.5C285.5 325.5 286.667 336.667 290 338C291.333 340.667 293.667 343.333 297 346C300.333 348.667 302.667 351 304 353C298.667 358.333 291.333 358.833 282 354.5C272.667 350.167 267.333 344.667 266 338C264.667 332.667 264.667 320 266 300C267.333 280 265.333 269.333 260 268C260 270.667 259.333 284 258 308C256.667 332 257.667 345 261 347C261.667 349 263.333 351.833 266 355.5C268.667 359.167 269.667 362.667 269 366C254.333 367.333 244.833 363 240.5 353C236.167 343 234.167 327.5 234.5 306.5C234.833 285.5 234.333 271.333 233 264C230.333 264.667 229 270 229 280C229 283.333 229.167 288.833 229.5 296.5C229.833 304.167 230 310.167 230 314.5C230 318.833 229.667 324.333 229 331C228.333 337.667 227.333 342.833 226 346.5C224.667 350.167 222.667 353.833 220 357.5C217.333 361.167 214 363.667 210 365C206 366.333 201 366.667 195 366C194.333 362.667 195.333 359.167 198 355.5C200.667 351.833 202.333 349.333 203 348C206.333 342.667 207.333 329.833 206 309.5C204.667 289.167 204.667 275.333 206 268C200 272 197.667 283.167 199 301.5C200.333 319.833 199.667 333.667 197 343C194.333 349 189.167 353.167 181.5 355.5C173.833 357.833 166.667 357.667 160 355C160.667 351.667 163 348.667 167 346C171 343.333 173.667 340.667 175 338C177.667 337.333 178.5 330.5 177.5 317.5C176.5 304.5 176.333 296 177 292C146.333 298 125.333 291.667 114 273C113.333 271 111.667 267 109 261C106.333 255 103.667 250.333 101 247C99.6667 245.667 96.6667 243.333 92 240C87.3333 236.667 84.3333 233 83 229C95.6667 225.667 108.167 231.167 120.5 245.5C132.833 259.833 144 267.333 154 268C158 268 166 266 178 262C181.333 250 186.667 241.333 194 236C147.333 228.667 117.667 212.333 105 187C68.3333 189 34.3333 194 3 202C23.6667 194 57.3333 188.667 104 186C103.333 183.333 102.167 181.333 100.5 180C98.8333 178.667 96.6667 177.833 94 177.5C91.3333 177.167 88.8333 176.833 86.5 176.5C84.1667 176.167 81.1667 176.167 77.5 176.5C73.8333 176.833 71.3333 177 70 177C44.6667 178.333 22 180.667 2 184C16.6667 178.667 48.6667 176 98 176C92 160 90.5 140.667 93.5 118C96.5 95.3333 103.667 79.3333 115 70C111.667 61.3333 110.333 51.3333 111 40C111.667 28.6667 114.333 19.6667 119 13C136.333 13.6667 155.667 21.3333 177 36C199 30.6667 222 28.3333 246 29C249.333 29 254.833 30 262.5 32C270.167 34 275.667 34.6667 279 34C282.333 33.3333 287.333 31 294 27C300.667 23 304.333 20.6667 305 20C315 15.3333 326 13 338 13Z" fill="black"/>
</svg>
